<svg width="24" height="32" viewBox="0 0 24 32" fill="none" xmlns="http://www.w3.org/2000/svg">
<g clip-path="url(#clip0_5_1766)">
<path fill-rule="evenodd" clip-rule="evenodd" d="M23.1956 14.9688L21.8831 11.6875C21.6553 11.1194 21.1039 10.7479 20.4919 10.75H17.25V10C17.25 9.58579 16.9142 9.25 16.5 9.25H2.25C1.42157 9.25 0.75 9.92157 0.75 10.75V21.25C0.75 22.0784 1.42157 22.75 2.25 22.75H3.84375C4.18363 24.0774 5.37974 25.0059 6.75 25.0059C8.12026 25.0059 9.31637 24.0774 9.65625 22.75H14.3438C14.6836 24.0774 15.8797 25.0059 17.25 25.0059C18.6203 25.0059 19.8164 24.0774 20.1562 22.75H21.75C22.5784 22.75 23.25 22.0784 23.25 21.25V15.25C23.2503 15.1536 23.2318 15.0581 23.1956 14.9688V14.9688ZM17.25 12.25H20.4919L21.3919 14.5H17.25V12.25ZM2.25 10.75H15.75V16.75H2.25V10.75ZM6.75 23.5C5.92157 23.5 5.25 22.8284 5.25 22C5.25 21.1716 5.92157 20.5 6.75 20.5C7.57843 20.5 8.25 21.1716 8.25 22C8.25 22.8284 7.57843 23.5 6.75 23.5V23.5ZM14.3438 21.25H9.65625C9.31637 19.9226 8.12026 18.9941 6.75 18.9941C5.37974 18.9941 4.18363 19.9226 3.84375 21.25H2.25V18.25H15.75V19.4041C15.0534 19.8067 14.547 20.4715 14.3438 21.25V21.25ZM17.25 23.5C16.4216 23.5 15.75 22.8284 15.75 22C15.75 21.1716 16.4216 20.5 17.25 20.5C18.0784 20.5 18.75 21.1716 18.75 22C18.75 22.8284 18.0784 23.5 17.25 23.5V23.5ZM21.75 21.25H20.1562C19.8124 19.9261 18.6179 19.0013 17.25 19V16H21.75V21.25Z" fill="#9CA6BA"/>
</g>
<defs>
<clipPath id="clip0_5_1766">
<rect width="24" height="24" fill="white" transform="translate(0 4)"/>
</clipPath>
</defs>
</svg>
