<svg width="48" height="48" viewBox="0 0 48 48" fill="none" xmlns="http://www.w3.org/2000/svg">
<g filter="url(#filter0_d_3_1135)">
<path d="M4 10C4 5.58172 7.58172 2 12 2H36C40.4183 2 44 5.58172 44 10V42H4V10Z" fill="#1C2126"/>
<g clip-path="url(#clip0_3_1135)">
<path fill-rule="evenodd" clip-rule="evenodd" d="M33 22C33 22.4142 32.6642 22.75 32.25 22.75H24.75V30.25C24.75 30.6642 24.4142 31 24 31C23.5858 31 23.25 30.6642 23.25 30.25V22.75H15.75C15.3358 22.75 15 22.4142 15 22C15 21.5858 15.3358 21.25 15.75 21.25H23.25V13.75C23.25 13.3358 23.5858 13 24 13C24.4142 13 24.75 13.3358 24.75 13.75V21.25H32.25C32.6642 21.25 33 21.5858 33 22Z" fill="white"/>
</g>
</g>
<defs>
<filter id="filter0_d_3_1135" x="0" y="0" width="48" height="48" filterUnits="userSpaceOnUse" color-interpolation-filters="sRGB">
<feFlood flood-opacity="0" result="BackgroundImageFix"/>
<feColorMatrix in="SourceAlpha" type="matrix" values="0 0 0 0 0 0 0 0 0 0 0 0 0 0 0 0 0 0 127 0" result="hardAlpha"/>
<feOffset dy="2"/>
<feGaussianBlur stdDeviation="2"/>
<feComposite in2="hardAlpha" operator="out"/>
<feColorMatrix type="matrix" values="0 0 0 0 0 0 0 0 0 0 0 0 0 0 0 0 0 0 0.1 0"/>
<feBlend mode="normal" in2="BackgroundImageFix" result="effect1_dropShadow_3_1135"/>
<feBlend mode="normal" in="SourceGraphic" in2="effect1_dropShadow_3_1135" result="shape"/>
</filter>
<clipPath id="clip0_3_1135">
<rect width="24" height="24" fill="white" transform="translate(12 10)"/>
</clipPath>
</defs>
</svg>
