<svg width="48" height="48" viewBox="0 0 48 48" fill="none" xmlns="http://www.w3.org/2000/svg">
<g clip-path="url(#clip0_3_727)">
<path fill-rule="evenodd" clip-rule="evenodd" d="M27.75 20.25H30.8438C31.1836 21.5774 32.3797 22.5059 33.75 22.5059C35.1203 22.5059 36.3164 21.5774 36.6562 20.25H44.25C44.6642 20.25 45 19.9142 45 19.5C45 19.0858 44.6642 18.75 44.25 18.75H36.6562C36.3164 17.4226 35.1203 16.4941 33.75 16.4941C32.3797 16.4941 31.1836 17.4226 30.8438 18.75H27.75C27.3358 18.75 27 19.0858 27 19.5C27 19.9142 27.3358 20.25 27.75 20.25ZM33.75 18C34.5784 18 35.25 18.6716 35.25 19.5C35.25 20.3284 34.5784 21 33.75 21C32.9216 21 32.25 20.3284 32.25 19.5C32.25 18.6716 32.9216 18 33.75 18ZM44.25 27.75H42.6562C42.3164 26.4226 41.1203 25.4941 39.75 25.4941C38.3797 25.4941 37.1836 26.4226 36.8438 27.75H27.75C27.3358 27.75 27 28.0858 27 28.5C27 28.9142 27.3358 29.25 27.75 29.25H36.8438C37.1836 30.5774 38.3797 31.5059 39.75 31.5059C41.1203 31.5059 42.3164 30.5774 42.6562 29.25H44.25C44.6642 29.25 45 28.9142 45 28.5C45 28.0858 44.6642 27.75 44.25 27.75ZM39.75 30C38.9216 30 38.25 29.3284 38.25 28.5C38.25 27.6716 38.9216 27 39.75 27C40.5784 27 41.25 27.6716 41.25 28.5C41.25 29.3284 40.5784 30 39.75 30Z" fill="white"/>
</g>
<defs>
<clipPath id="clip0_3_727">
<rect width="24" height="24" fill="white" transform="translate(24 12)"/>
</clipPath>
</defs>
</svg>
