<svg width="48" height="48" viewBox="0 0 48 48" fill="none" xmlns="http://www.w3.org/2000/svg">
<g filter="url(#filter0_d_3_1145)">
<rect x="4" y="2" width="40" height="40" rx="8" fill="#1C2126"/>
<g clip-path="url(#clip0_3_1145)">
<path fill-rule="evenodd" clip-rule="evenodd" d="M33.4997 19.2072L17.0072 13.0938L16.9922 13.0891C16.4506 12.9026 15.85 13.0408 15.4445 13.4454C15.039 13.8499 14.8992 14.4501 15.0844 14.9922C15.0855 14.9973 15.0871 15.0023 15.0891 15.0072L21.2072 31.4997C21.4133 32.1028 21.9827 32.5059 22.62 32.5H22.6481C23.2987 32.495 23.8696 32.0654 24.0544 31.4416L26.2631 24.2641L33.4406 22.0553C34.0592 21.865 34.4859 21.2993 34.4992 20.6523C34.5124 20.0052 34.1091 19.4226 33.4988 19.2072H33.4997ZM33 20.6219L25.8225 22.8306C25.3481 22.9768 24.9768 23.3481 24.8306 23.8225L22.6219 31L22.6163 30.9841L16.5 14.5L32.9831 20.6144L32.9981 20.62L33 20.6219Z" fill="white"/>
</g>
</g>
<defs>
<filter id="filter0_d_3_1145" x="0" y="0" width="48" height="48" filterUnits="userSpaceOnUse" color-interpolation-filters="sRGB">
<feFlood flood-opacity="0" result="BackgroundImageFix"/>
<feColorMatrix in="SourceAlpha" type="matrix" values="0 0 0 0 0 0 0 0 0 0 0 0 0 0 0 0 0 0 127 0" result="hardAlpha"/>
<feOffset dy="2"/>
<feGaussianBlur stdDeviation="2"/>
<feComposite in2="hardAlpha" operator="out"/>
<feColorMatrix type="matrix" values="0 0 0 0 0 0 0 0 0 0 0 0 0 0 0 0 0 0 0.1 0"/>
<feBlend mode="normal" in2="BackgroundImageFix" result="effect1_dropShadow_3_1145"/>
<feBlend mode="normal" in="SourceGraphic" in2="effect1_dropShadow_3_1145" result="shape"/>
</filter>
<clipPath id="clip0_3_1145">
<rect width="24" height="24" fill="white" transform="translate(12 10)"/>
</clipPath>
</defs>
</svg>
