<svg width="24" height="32" viewBox="0 0 24 32" fill="none" xmlns="http://www.w3.org/2000/svg">
<g clip-path="url(#clip0_5_1787)">
<path fill-rule="evenodd" clip-rule="evenodd" d="M21.6497 24.625C21.5157 24.8571 21.268 25.0001 21 25H3C2.73219 24.9997 2.48484 24.8567 2.35106 24.6247C2.21727 24.3927 2.21734 24.1069 2.35125 23.875C3.77906 21.4066 5.97938 19.6366 8.54719 18.7975C5.93645 17.2433 4.68585 14.1364 5.49182 11.2069C6.29779 8.27741 8.96167 6.24745 12 6.24745C15.0383 6.24745 17.7022 8.27741 18.5082 11.2069C19.3142 14.1364 18.0635 17.2433 15.4528 18.7975C18.0206 19.6366 20.2209 21.4066 21.6488 23.875C21.783 24.1069 21.7834 24.3928 21.6497 24.625V24.625Z" fill="white"/>
</g>
<defs>
<clipPath id="clip0_5_1787">
<rect width="24" height="24" fill="white" transform="translate(0 4)"/>
</clipPath>
</defs>
</svg>
