<svg width="48" height="48" viewBox="0 0 48 48" fill="none" xmlns="http://www.w3.org/2000/svg">
<g clip-path="url(#clip0_4_1493)">
<path fill-rule="evenodd" clip-rule="evenodd" d="M44.8472 26.8556L40.4306 24.8766L40.4184 24.8709C39.9526 24.6717 39.4177 24.7211 38.9963 25.0022C38.9718 25.0183 38.9483 25.0359 38.9259 25.0547L36.6441 27C35.1984 26.2978 33.7059 24.8166 33.0037 23.3897L34.9519 21.0731C34.9706 21.0497 34.9884 21.0262 35.0053 21.0009C35.2803 20.5807 35.3268 20.0507 35.1291 19.5891V19.5778L33.1444 15.1537C32.8801 14.5439 32.246 14.1807 31.5862 14.2613C28.9583 14.6071 26.9952 16.8494 27 19.5C27 26.9438 33.0562 33 40.5 33C43.1506 33.0048 45.3929 31.0417 45.7388 28.4137C45.8195 27.7542 45.4567 27.1202 44.8472 26.8556ZM40.5 31.5C33.8756 31.4928 28.5072 26.1244 28.5 19.5C28.4927 17.6062 29.8919 16.0011 31.7691 15.75C31.7687 15.7537 31.7687 15.7575 31.7691 15.7613L33.7378 20.1675L31.8 22.4869C31.7803 22.5095 31.7625 22.5336 31.7466 22.5591C31.4596 22.9994 31.424 23.5578 31.6528 24.0309C32.5022 25.7681 34.2525 27.5053 36.0084 28.3538C36.4851 28.5804 37.0459 28.5398 37.485 28.2469C37.5091 28.2307 37.5322 28.2131 37.5544 28.1944L39.8334 26.25L44.2397 28.2234C44.2397 28.2234 44.2472 28.2234 44.25 28.2234C44.002 30.1033 42.3962 31.5064 40.5 31.5Z" fill="white"/>
</g>
<defs>
<clipPath id="clip0_4_1493">
<rect width="24" height="24" fill="white" transform="translate(24 12)"/>
</clipPath>
</defs>
</svg>
