<svg width="40" height="48" viewBox="0 0 40 48" fill="none" xmlns="http://www.w3.org/2000/svg">
<path d="M0 0H32C36.4183 0 40 3.58172 40 8V40C40 44.4183 36.4183 48 32 48H0V0Z" fill="#292E38"/>
<g clip-path="url(#clip0_4_1519)">
<path fill-rule="evenodd" clip-rule="evenodd" d="M22.875 17.125H9.125C8.43464 17.125 7.875 17.6846 7.875 18.375V29.625C7.875 30.3154 8.43464 30.875 9.125 30.875H22.875C23.5654 30.875 24.125 30.3154 24.125 29.625V18.375C24.125 17.6846 23.5654 17.125 22.875 17.125ZM22.875 18.375V26.4023L20.8383 24.3664C20.6039 24.1319 20.2859 24.0002 19.9543 24.0002C19.6227 24.0002 19.3047 24.1319 19.0703 24.3664L17.5078 25.9289L14.0703 22.4914C13.5822 22.0036 12.7912 22.0036 12.3031 22.4914L9.125 25.6695V18.375H22.875ZM9.125 27.4375L13.1875 23.375L19.4375 29.625H9.125V27.4375ZM22.875 29.625H21.2055L18.393 26.8125L19.9555 25.25L22.875 28.1703V29.625ZM17.25 21.8125C17.25 21.2947 17.6697 20.875 18.1875 20.875C18.7053 20.875 19.125 21.2947 19.125 21.8125C19.125 22.3303 18.7053 22.75 18.1875 22.75C17.6697 22.75 17.25 22.3303 17.25 21.8125Z" fill="#9CA8BA"/>
</g>
<defs>
<clipPath id="clip0_4_1519">
<rect width="20" height="20" fill="white" transform="translate(6 14)"/>
</clipPath>
</defs>
</svg>
