<svg width="18" height="18" viewBox="0 0 18 18" fill="none" xmlns="http://www.w3.org/2000/svg">
<g clip-path="url(#clip0_3_748)">
<path fill-rule="evenodd" clip-rule="evenodd" d="M15.5855 9.39797L10.523 14.4605C10.3032 14.6803 9.94682 14.6803 9.72703 14.4605C9.50724 14.2407 9.50724 13.8843 9.72703 13.6645L13.8298 9.5625H2.8125C2.50184 9.5625 2.25 9.31066 2.25 9C2.25 8.68934 2.50184 8.4375 2.8125 8.4375H13.8298L9.72703 4.33547C9.50724 4.11568 9.50724 3.75932 9.72703 3.53953C9.94682 3.31974 10.3032 3.31974 10.523 3.53953L15.5855 8.60203C15.6911 8.70754 15.7504 8.85071 15.7504 9C15.7504 9.14929 15.6911 9.29246 15.5855 9.39797Z" fill="white"/>
</g>
<defs>
<clipPath id="clip0_3_748">
<rect width="18" height="18" fill="white"/>
</clipPath>
</defs>
</svg>
