<svg width="48" height="48" viewBox="0 0 48 48" fill="none" xmlns="http://www.w3.org/2000/svg">
<rect width="48" height="48" rx="8" fill="#292E38"/>
<g clip-path="url(#clip0_3_863)">
<path fill-rule="evenodd" clip-rule="evenodd" d="M31.5 19.5C31.5 19.9142 31.1642 20.25 30.75 20.25H27.7359C27.7444 20.3737 27.75 20.4984 27.75 20.625C27.7464 23.7301 25.2301 26.2464 22.125 26.25H20.6897L27.5044 32.445C27.7064 32.6242 27.7965 32.8983 27.7402 33.1624C27.6839 33.4266 27.4899 33.6401 27.2323 33.7213C26.9747 33.8026 26.6933 33.739 26.4956 33.555L18.2456 26.055C18.0163 25.8466 17.9388 25.5186 18.0505 25.2296C18.1622 24.9406 18.4401 24.75 18.75 24.75H22.125C24.4021 24.7474 26.2474 22.9021 26.25 20.625C26.25 20.4984 26.2434 20.3737 26.2322 20.25H18.75C18.3358 20.25 18 19.9142 18 19.5C18 19.0858 18.3358 18.75 18.75 18.75H25.7972C25.0929 17.3698 23.6745 16.5008 22.125 16.5H18.75C18.3358 16.5 18 16.1642 18 15.75C18 15.3358 18.3358 15 18.75 15H30.75C31.1642 15 31.5 15.3358 31.5 15.75C31.5 16.1642 31.1642 16.5 30.75 16.5H25.9444C26.6134 17.1191 27.1223 17.8911 27.4275 18.75H30.75C31.1642 18.75 31.5 19.0858 31.5 19.5Z" fill="white"/>
</g>
<defs>
<clipPath id="clip0_3_863">
<rect width="24" height="24" fill="white" transform="translate(12 12)"/>
</clipPath>
</defs>
</svg>
