<svg width="40" height="48" viewBox="0 0 40 48" fill="none" xmlns="http://www.w3.org/2000/svg">
<path d="M0 8C0 3.58172 3.58172 0 8 0H40V48H8C3.58172 48 0 44.4183 0 40V8Z" fill="#1C2126"/>
<g clip-path="url(#clip0_3_1127)">
<path fill-rule="evenodd" clip-rule="evenodd" d="M37.5306 32.4694L32.8366 27.7762C35.6629 24.383 35.3204 19.3669 32.0591 16.3893C28.7978 13.4118 23.7713 13.526 20.6487 16.6487C17.526 19.7713 17.4118 24.7978 20.3893 28.0591C23.3669 31.3204 28.383 31.6629 31.7762 28.8366L36.4694 33.5306C36.7624 33.8237 37.2376 33.8237 37.5306 33.5306C37.8237 33.2376 37.8237 32.7624 37.5306 32.4694ZM19.75 22.5C19.75 18.7721 22.7721 15.75 26.5 15.75C30.2279 15.75 33.25 18.7721 33.25 22.5C33.25 26.2279 30.2279 29.25 26.5 29.25C22.7738 29.2459 19.7541 26.2262 19.75 22.5Z" fill="#9CA8BA"/>
</g>
<defs>
<clipPath id="clip0_3_1127">
<rect width="24" height="24" fill="white" transform="translate(16 12)"/>
</clipPath>
</defs>
</svg>
