<svg width="48" height="48" viewBox="0 0 48 48" fill="none" xmlns="http://www.w3.org/2000/svg">
<g clip-path="url(#clip0_4_1537)">
<path fill-rule="evenodd" clip-rule="evenodd" d="M19.2806 30.2194C19.5737 30.5124 19.5737 30.9876 19.2806 31.2806C18.9876 31.5737 18.5124 31.5737 18.2194 31.2806L12 25.0603L5.78062 31.2806C5.48757 31.5737 5.01243 31.5737 4.71938 31.2806C4.42632 30.9876 4.42632 30.5124 4.71938 30.2194L10.9397 24L4.71938 17.7806C4.42632 17.4876 4.42632 17.0124 4.71938 16.7194C5.01243 16.4263 5.48757 16.4263 5.78062 16.7194L12 22.9397L18.2194 16.7194C18.5124 16.4263 18.9876 16.4263 19.2806 16.7194C19.5737 17.0124 19.5737 17.4876 19.2806 17.7806L13.0603 24L19.2806 30.2194Z" fill="white"/>
</g>
<defs>
<clipPath id="clip0_4_1537">
<rect width="24" height="24" fill="white" transform="translate(0 12)"/>
</clipPath>
</defs>
</svg>
