<svg width="48" height="48" viewBox="0 0 48 48" fill="none" xmlns="http://www.w3.org/2000/svg">
<rect width="48" height="48" rx="8" fill="#292E38"/>
<g clip-path="url(#clip0_4_1427)">
<path fill-rule="evenodd" clip-rule="evenodd" d="M14.25 21.75H16.5V27.75H15C14.5858 27.75 14.25 28.0858 14.25 28.5C14.25 28.9142 14.5858 29.25 15 29.25H33C33.4142 29.25 33.75 28.9142 33.75 28.5C33.75 28.0858 33.4142 27.75 33 27.75H31.5V21.75H33.75C34.0853 21.7497 34.3796 21.5268 34.4709 21.2042C34.5622 20.8815 34.4282 20.5375 34.1428 20.3616L24.3928 14.3616C24.1519 14.2134 23.8481 14.2134 23.6072 14.3616L13.8572 20.3616C13.5718 20.5375 13.4378 20.8815 13.5291 21.2042C13.6204 21.5268 13.9147 21.7497 14.25 21.75V21.75ZM18 21.75H21V27.75H18V21.75ZM25.5 21.75V27.75H22.5V21.75H25.5ZM30 27.75H27V21.75H30V27.75ZM24 15.8803L31.1006 20.25H16.8994L24 15.8803ZM35.25 31.5C35.25 31.9142 34.9142 32.25 34.5 32.25H13.5C13.0858 32.25 12.75 31.9142 12.75 31.5C12.75 31.0858 13.0858 30.75 13.5 30.75H34.5C34.9142 30.75 35.25 31.0858 35.25 31.5V31.5Z" fill="white"/>
</g>
<defs>
<clipPath id="clip0_4_1427">
<rect width="24" height="24" fill="white" transform="translate(12 12)"/>
</clipPath>
</defs>
</svg>
