<svg width="48" height="48" viewBox="0 0 48 48" fill="none" xmlns="http://www.w3.org/2000/svg">
<rect width="48" height="48" rx="8" fill="#292E38"/>
<g clip-path="url(#clip0_3_853)">
<path fill-rule="evenodd" clip-rule="evenodd" d="M34.4466 24.4688L31.4466 16.9688C31.3101 16.6275 30.9466 16.4354 30.5878 16.515L24.75 17.8125V15.75C24.75 15.3358 24.4142 15 24 15C23.5858 15 23.25 15.3358 23.25 15.75V18.1481L17.0869 19.5178C16.8456 19.5711 16.6461 19.7398 16.5534 19.9688V19.9744L13.5534 27.4688C13.5175 27.5581 13.4994 27.6537 13.5 27.75C13.5 29.9353 15.8006 30.75 17.25 30.75C18.6994 30.75 21 29.9353 21 27.75C21.0006 27.6537 20.9825 27.5581 20.9466 27.4688L18.2737 20.7909L23.25 19.6875V31.5H21.75C21.3358 31.5 21 31.8358 21 32.25C21 32.6642 21.3358 33 21.75 33H26.25C26.6642 33 27 32.6642 27 32.25C27 31.8358 26.6642 31.5 26.25 31.5H24.75V19.3519L29.5312 18.2906L27.0534 24.4688C27.0175 24.5581 26.9994 24.6537 27 24.75C27 26.9353 29.3006 27.75 30.75 27.75C32.1994 27.75 34.5 26.9353 34.5 24.75C34.5006 24.6537 34.4825 24.5581 34.4466 24.4688ZM17.25 29.25C16.5441 29.25 15.1163 28.9116 15.0066 27.8775L17.25 22.2694L19.4934 27.8775C19.3837 28.9116 17.9559 29.25 17.25 29.25ZM30.75 26.25C30.0441 26.25 28.6163 25.9116 28.5066 24.8775L30.75 19.2694L32.9934 24.8775C32.8837 25.9116 31.4559 26.25 30.75 26.25Z" fill="white"/>
</g>
<defs>
<clipPath id="clip0_3_853">
<rect width="24" height="24" fill="white" transform="translate(12 12)"/>
</clipPath>
</defs>
</svg>
