<svg width="24" height="32" viewBox="0 0 24 32" fill="none" xmlns="http://www.w3.org/2000/svg">
<g clip-path="url(#clip0_4_1392)">
<path fill-rule="evenodd" clip-rule="evenodd" d="M20.25 10.75H5.25C4.83579 10.75 4.5 10.4142 4.5 10C4.5 9.58579 4.83579 9.25 5.25 9.25H18C18.4142 9.25 18.75 8.91421 18.75 8.5C18.75 8.08579 18.4142 7.75 18 7.75H5.25C4.00736 7.75 3 8.75736 3 10V22C3 23.2426 4.00736 24.25 5.25 24.25H20.25C21.0784 24.25 21.75 23.5784 21.75 22.75V12.25C21.75 11.4216 21.0784 10.75 20.25 10.75V10.75ZM16.875 18.25C16.2537 18.25 15.75 17.7463 15.75 17.125C15.75 16.5037 16.2537 16 16.875 16C17.4963 16 18 16.5037 18 17.125C18 17.7463 17.4963 18.25 16.875 18.25V18.25Z" fill="white"/>
</g>
<defs>
<clipPath id="clip0_4_1392">
<rect width="24" height="24" fill="white" transform="translate(0 4)"/>
</clipPath>
</defs>
</svg>
